<?xml version="1.0" encoding="utf-8"?>
<svg viewBox="0 0 128 128" xmlns="http://www.w3.org/2000/svg">
  <defs/>
  <rect width="120" height="120" style="stroke: rgb(0, 0, 0); fill: none; stroke-width: 8px;" y="4" x="4"/>
  <path d="M 40 30 L 50 30 L 50 38 L 42 38 L 42 61.251 L 39.251 64 L 42 66.749 L 42 90 L 50 90 L 50 98 L 40 98 C 38.63 97.825 36.623 97.109 35.757 96.243 C 34.891 95.377 34.175 93.37 34 92 L 34 68 L 30 68 L 30 60 L 34 60 L 34 36 C 34.175 34.63 34.891 32.623 35.757 31.757 C 36.623 30.891 38.63 30.175 40 30 Z M 88 30 C 89.37 30.175 91.377 30.891 92.243 31.757 C 93.109 32.623 93.825 34.63 94 36 L 94 60 L 98 60 L 98 68 L 94 68 L 94 92 C 93.825 93.37 93.109 95.377 92.243 96.243 C 91.377 97.109 89.37 97.825 88 98 L 78 98 L 78 90 L 86 90 L 86 66.749 L 88.749 64 L 86 61.251 L 86 38 L 78 38 L 78 30 L 88 30 Z" style=""/>
</svg>