<?xml version="1.0" encoding="utf-8"?>
<svg viewBox="0 0 128 128" xmlns="http://www.w3.org/2000/svg">
  <defs/>
  <path d="M 128 0 L 128 128 L 0 128 L 0 0 Z M 12 116 L 116 116 L 116 12 L 12 12 Z M 46 30 L 58 30 L 58 42 L 48 42 L 48 60.201 L 44.201 64 L 48 67.799 L 48 86 L 58 86 L 58 98 L 46 98 C 43.67 97.738 40.409 96.551 38.929 95.071 C 37.449 93.591 36.262 90.33 36 88 L 36 70 L 30 70 L 30 58 L 36 58 L 36 40 C 36.262 37.67 37.449 34.409 38.929 32.929 C 40.409 31.449 43.67 30.262 46 30 Z M 82 30 C 84.33 30.262 87.591 31.449 89.071 32.929 C 90.551 34.409 91.738 37.67 92 40 L 92 58 L 98 58 L 98 70 L 92 70 L 92 88 C 91.738 90.33 90.551 93.591 89.071 95.071 C 87.591 96.551 84.33 97.738 82 98 L 70 98 L 70 86 L 80 86 L 80 67.799 L 83.799 64 L 80 60.201 L 80 42 L 70 42 L 70 30 Z" style=""/>
</svg>