<?xml version="1.0" encoding="utf-8"?>
<svg viewBox="0 0 128 128" xmlns="http://www.w3.org/2000/svg">
  <defs/>
  <path d="M 128 0 L 128 128 L 0 128 L 0 0 Z M 12 116 L 116 116 L 116 12 L 12 12 Z M 52.353 92.776 C 48.613 92.776 45.72 92.468 43.674 91.852 C 41.628 91.236 40.209 90.268 39.417 88.948 C 38.625 87.628 38.229 85.912 38.229 83.8 L 38.229 73.636 C 38.229 71.568 37.525 70.094 36.117 69.214 C 34.709 68.334 32.663 67.894 29.979 67.894 L 29.979 60.172 C 32.663 60.172 34.709 59.732 36.117 58.852 C 37.525 57.972 38.229 56.498 38.229 54.43 L 38.229 44.2 C 38.229 42.088 38.625 40.372 39.417 39.052 C 40.209 37.732 41.628 36.764 43.674 36.148 C 45.72 35.532 48.613 35.224 52.353 35.224 L 52.353 42.484 C 50.637 42.528 49.273 42.836 48.261 43.408 C 47.249 43.98 46.743 45.19 46.743 47.038 L 46.743 56.674 C 46.743 60.678 44.235 63.054 39.219 63.802 L 39.219 64.198 C 44.235 64.946 46.743 67.322 46.743 71.326 L 46.743 80.962 C 46.743 82.81 47.249 84.02 48.261 84.592 C 49.273 85.164 50.637 85.472 52.353 85.516 Z M 75.648 85.516 C 77.364 85.472 78.728 85.164 79.74 84.592 C 80.752 84.02 81.258 82.81 81.258 80.962 L 81.258 71.326 C 81.258 67.322 83.766 64.946 88.782 64.198 L 88.782 63.802 C 83.766 63.054 81.258 60.678 81.258 56.674 L 81.258 47.038 C 81.258 45.19 80.752 43.98 79.74 43.408 C 78.728 42.836 77.364 42.528 75.648 42.484 L 75.648 35.224 C 79.432 35.224 82.336 35.532 84.36 36.148 C 86.384 36.764 87.792 37.732 88.584 39.052 C 89.376 40.372 89.772 42.088 89.772 44.2 L 89.772 54.43 C 89.772 56.498 90.476 57.972 91.884 58.852 C 93.292 59.732 95.338 60.172 98.022 60.172 L 98.022 67.894 C 95.338 67.894 93.292 68.334 91.884 69.214 C 90.476 70.094 89.772 71.568 89.772 73.636 L 89.772 83.8 C 89.772 85.912 89.376 87.628 88.584 88.948 C 87.792 90.268 86.384 91.236 84.36 91.852 C 82.336 92.468 79.432 92.776 75.648 92.776 Z" style=""/>
</svg>