<?xml version="1.0" encoding="utf-8"?>
<svg viewBox="0 0 128 128" xmlns="http://www.w3.org/2000/svg">
  <defs/>
  <path d="M 64 126.933 L 1.067 64 L 12.381 64 L 64 115.619 L 115.619 64 L 126.933 64 Z M 68 67.754 C 68 68.269 67.895 68.759 67.686 69.221 C 67.476 69.683 67.19 70.085 66.828 70.425 C 66.468 70.765 66.042 71.033 65.549 71.23 C 65.059 71.428 64.539 71.526 63.989 71.526 C 63.441 71.526 62.924 71.428 62.44 71.23 C 61.956 71.033 61.532 70.765 61.172 70.425 C 60.81 70.085 60.524 69.683 60.315 69.221 C 60.105 68.759 60 68.269 60 67.754 C 60 67.237 60.105 66.75 60.315 66.295 C 60.524 65.839 60.81 65.441 61.172 65.102 C 61.532 64.762 61.956 64.493 62.44 64.296 C 62.924 64.098 63.441 64 63.989 64 C 64.539 64 65.059 64.098 65.549 64.296 C 66.042 64.493 66.468 64.762 66.828 65.102 C 67.19 65.441 67.476 65.839 67.686 66.295 C 67.895 66.75 68 67.237 68 67.754 Z M 67.675 97 L 60.325 97 L 60.325 73.464 L 67.675 73.464 Z" style=""/>
</svg>