<?xml version="1.0" encoding="utf-8"?>
<svg viewBox="0 0 320 320" xmlns="http://www.w3.org/2000/svg">
  <defs/>
  <path d="M 40 32 L 56 32 C 60.418 32 64 35.582 64 40 L 64 280 C 64 284.418 60.418 288 56 288 L 40 288 C 35.582 288 32 284.418 32 280 L 32 40 C 32 35.582 35.582 32 40 32 Z" style="fill: rgb(187, 52, 47);"/>
  <path d="M 288 280 C 288 284.418 284.418 288 280 288 L 264 288 C 259.582 288 256 284.418 256 280 L 256 70 C 256 66.686 253.314 64 250 64 L 190 64 C 185.582 64 182 60.418 182 56 L 182 40 C 182 35.582 185.582 32 190 32 L 280 32 C 284.418 32 288 35.582 288 40 L 288 280 Z" style="fill: rgb(187, 52, 47);"/>
  <path d="M 96 67.75 C 96 62.75 99.556 62.75 106.667 67.75 L 218.666 146.5 C 218.788 146.586 218.908 146.671 219.025 146.755 C 219.026 146.768 219.027 146.781 219.028 146.795 C 219.764 147.357 220.431 147.996 221.005 148.651 C 222.125 149.934 222.997 151.61 223.477 153.15 C 223.933 154.614 224.117 156.103 223.925 157.651 C 223.912 157.762 223.896 157.874 223.878 157.988 C 223.959 158.464 223.999 158.968 223.999 159.5 L 223.999 238.25 C 223.999 243.25 220.443 243.25 213.332 238.25 L 101.599 159.687 C 101.6 159.657 101.602 159.628 101.603 159.598 C 100.515 158.91 99.586 158.039 98.781 157.05 C 97.845 155.896 96.989 154.495 96.533 153 C 96.061 151.435 95.877 149.462 96.085 147.827 C 96.086 147.819 96.087 147.81 96.088 147.802 C 96.029 147.388 96 146.955 96 146.5 L 96 67.75 Z" style="fill: rgb(187, 52, 47);"/>
</svg>