<?xml version="1.0" encoding="utf-8"?>
<svg viewBox="0 0 128 128" xmlns="http://www.w3.org/2000/svg">
  <path d="M 48.531 100.573 C 27.046 105.244 22.512 91.46 22.512 91.46 C 18.999 82.533 13.937 80.16 13.937 80.16 C 6.928 75.366 14.465 75.466 14.465 75.466 C 22.219 76.01 26.304 83.425 26.304 83.425 C 33.192 95.229 44.371 91.817 48.778 89.845 C 49.471 84.853 51.473 81.445 53.682 79.517 C 36.527 77.566 18.493 70.943 18.493 41.35 C 18.493 32.918 21.512 26.028 26.452 20.619 C 25.649 18.675 23.005 10.82 27.199 0.182 C 27.199 0.182 33.683 -1.894 48.442 8.098 C 54.604 6.386 61.212 5.525 67.776 5.495 C 74.337 5.525 80.949 6.383 87.123 8.095 C 101.863 -1.897 108.34 0.179 108.34 0.179 C 112.544 10.816 109.9 18.672 109.098 20.616 C 114.05 26.026 117.047 32.915 117.047 41.347 C 117.047 71.01 98.979 77.541 81.782 79.454 C 84.553 81.851 87.022 86.552 87.022 93.756 C 87.022 103.559 86.941 111.546 86.933 114.513 C 86.979 114.868 87.212 116.316 88.106 117.791 C 88.313 117.959 88.46 118.173 88.524 118.41 C 89.24 119.371 90.273 120.278 91.754 120.828 C 91.754 120.828 94.388 122.647 91.566 123.651 C 91.566 123.651 91.545 123.652 91.505 123.654 C 88.038 125.093 84.118 126.224 79.881 126.969 C 79.699 127.037 79.472 127.078 79.196 127.087 C 75.6 127.68 71.785 128 67.831 128 C 63.831 128 59.969 127.673 56.331 127.065 C 56.115 127.052 55.931 127.019 55.774 126.969 C 51.539 126.224 47.619 125.096 44.15 123.66 C 44.062 123.654 44.015 123.651 44.015 123.651 C 41.193 122.647 43.827 120.828 43.827 120.828 C 45.321 120.302 46.357 119.41 47.073 118.454 C 47.125 118.156 47.307 117.892 47.573 117.696 C 48.334 116.379 48.571 115.096 48.636 114.621 C 48.629 112.461 48.563 106.683 48.531 100.573 Z M 19.795 79.037 C 19.991 78.653 19.671 78.125 19.109 77.873 C 18.55 77.608 17.945 77.717 17.779 78.114 C 17.597 78.498 17.91 79.022 18.473 79.272 C 19.023 79.534 19.627 79.419 19.797 79.036 L 19.795 79.037 Z M 22.926 82.527 C 23.312 82.18 23.213 81.467 22.709 80.922 C 22.202 80.385 21.504 80.224 21.123 80.564 C 20.748 80.911 20.843 81.631 21.349 82.168 C 21.838 82.709 22.558 82.867 22.925 82.526 L 22.926 82.527 Z M 25.971 86.971 C 26.455 86.636 26.455 85.811 25.984 85.114 C 25.498 84.434 24.735 84.136 24.258 84.466 C 23.772 84.795 23.772 85.619 24.245 86.308 C 24.723 86.994 25.498 87.303 25.971 86.973 L 25.971 86.971 Z M 30.144 91.27 C 30.596 90.805 30.392 89.918 29.718 89.296 C 29.055 88.665 28.148 88.534 27.718 89.002 C 27.295 89.468 27.483 90.354 28.157 90.977 C 28.817 91.612 29.72 91.738 30.142 91.271 L 30.144 91.27 Z M 34.633 92.184 C 33.752 91.909 32.879 92.194 32.7 92.804 C 32.521 93.416 33.092 94.123 33.966 94.388 C 34.842 94.646 35.709 94.371 35.897 93.766 C 36.079 93.151 35.507 92.448 34.633 92.184 Z M 42.22 94.227 C 42.22 93.596 41.467 93.085 40.55 93.101 C 39.626 93.119 38.9 93.64 38.9 94.283 C 38.909 94.91 39.657 95.426 40.582 95.404 C 41.499 95.392 42.24 94.865 42.219 94.228 L 42.22 94.227 Z M 48.099 93.229 C 47.984 92.599 47.165 92.224 46.252 92.381 C 45.357 92.546 44.707 93.184 44.817 93.821 C 44.932 94.436 45.764 94.823 46.659 94.656 C 47.571 94.486 48.209 93.848 48.099 93.228 L 48.099 93.229 Z" style=""/>
</svg>