<?xml version="1.0" encoding="utf-8"?>
<svg viewBox="0 0 128 128" xmlns="http://www.w3.org/2000/svg">
  <defs/>
  <path d="M 27.826 60.458 L 27.826 60.423 L 27.826 24.391 L 27.492 24.144 L 27.464 24.144 L 19.868 18.546 C 15.221 15.11 8.598 15.275 4.48 19.322 C 1.725 22.038 0 25.807 0 29.992 L 0 39.975 L 27.826 60.458 Z M 100.174 60.423 L 100.174 60.458 L 128 39.975 L 128 29.992 C 128 25.863 126.33 22.093 123.603 19.377 C 119.541 15.34 113.127 14.865 108.511 18.26 L 100.508 24.144 L 100.174 24.391 L 100.174 60.423 Z M 33.391 64.518 L 62.347 85.837 C 63.329 86.56 64.673 86.56 65.655 85.837 L 94.609 64.518 L 94.609 28.487 L 64 51.027 L 33.391 28.487 L 33.391 64.518 Z M 100.174 67.348 L 100.174 109.228 C 100.174 110.758 101.421 112 102.957 112 L 121.043 112 C 124.886 112 128 108.897 128 105.07 L 128 46.861 L 100.174 67.348 Z M 27.826 67.348 L 0 46.861 L 0 105.07 C 0 108.897 3.114 112 6.957 112 L 25.043 112 C 26.579 112 27.826 110.758 27.826 109.228 L 27.826 67.348 Z"/>
</svg>