<?xml version="1.0" encoding="utf-8"?>
<svg viewBox="0 0 128 128" xmlns="http://www.w3.org/2000/svg">
  <defs/>
  <path d="M 98 83.334 L 98.026 83.315 L 98.026 59.118 L 128.026 37 L 128.026 121.11 C 128.026 124.937 124.893 128.039 121.025 128.039 L 102.826 128.039 C 102.639 128.039 102.456 128.021 102.279 127.986 L 100.8 127.986 C 99.255 127.986 98 126.744 98 125.214 Z M 30.026 125.214 C 30.026 126.744 28.771 127.986 27.226 127.986 L 25.747 127.986 C 25.57 128.021 25.387 128.039 25.2 128.039 L 7.001 128.039 C 3.133 128.039 0 124.937 0 121.11 L 0 37.023 L 30 59.141 L 30 83.315 L 30.026 83.334 Z M 65.655 76.54 C 64.673 77.263 63.329 77.263 62.347 76.54 L 35.3 56.627 L 35.3 13.4 L 64 34.534 L 92.7 13.4 L 92.7 56.628 Z M 0 30.692 L 0 13.875 C 0 9.691 1.748 5.921 4.539 3.205 C 8.712 -0.841 15.422 -1.007 20.131 2.429 L 21.146 3.167 L 21.146 3 C 21.415 3.167 21.679 3.344 21.936 3.532 L 29.633 9.13 L 29.662 9.13 L 30 9.377 L 30 52.278 L 28.195 50.966 L 28.195 51.175 Z M 99.805 51.175 L 99.805 50.966 L 98 52.278 L 98 9.377 L 98.338 9.13 L 98.366 9.13 L 106.064 3.532 C 106.321 3.344 106.585 3.167 106.854 3 L 106.854 3.167 L 107.869 2.429 C 112.578 -1.007 119.288 -0.841 123.461 3.205 C 126.252 5.921 128 9.691 128 13.875 L 128 30.692 Z" style=""/>
</svg>