<?xml version="1.0" encoding="utf-8"?>
<svg viewBox="0 0 128 128" xmlns="http://www.w3.org/2000/svg">
  <defs/>
  <path d="M 2.108 42.534 L 28.639 42.534 L 28.639 128 L 2.108 128 L 2.108 42.534 Z M 15.381 0 C 27.222 0 34.621 12.833 28.701 23.1 C 22.781 33.367 7.98 33.367 2.06 23.1 C 0.709 20.755 -0.003 18.094 0 15.385 C 0.008 6.887 6.892 0 15.381 0 M 45.28 42.534 L 70.708 42.534 L 70.708 54.267 L 71.06 54.267 C 74.606 47.551 83.248 40.467 96.153 40.467 C 123.019 40.407 128 58.11 128 81.066 L 128 128 L 101.472 128 L 101.472 86.418 C 101.472 76.518 101.295 63.773 87.687 63.773 C 74.079 63.773 71.764 74.568 71.764 85.773 L 71.764 128 L 45.28 128 L 45.28 42.534 Z" style=""/>
</svg>