<?xml version="1.0" encoding="utf-8"?>
<svg viewBox="0 0 256 256" xmlns="http://www.w3.org/2000/svg">
  <defs/>
  <path d="M 8 0 H 24 A 8 8 0 0 1 32 8 V 248 A 8 8 0 0 1 24 256 H 8 A 8 8 0 0 1 0 248 V 8 A 8 8 0 0 1 8 0 Z" style=""/>
  <path d="M 256 248 C 256 252.418 252.418 256 248 256 L 232 256 C 227.582 256 224 252.418 224 248 L 224 38 C 224 34.686 221.314 32 218 32 L 158 32 C 153.582 32 150 28.418 150 24 L 150 8 C 150 3.582 153.582 0 158 0 L 248 0 C 252.418 0 256 3.582 256 8 Z" style=""/>
  <path d="M 64 35.75 C 64 30.75 67.556 30.75 74.667 35.75 L 186.666 114.5 C 186.788 114.586 186.908 114.671 187.025 114.755 C 187.026 114.768 187.027 114.781 187.028 114.795 C 187.764 115.357 188.431 115.996 189.005 116.651 C 190.125 117.934 190.997 119.61 191.477 121.15 C 191.933 122.614 192.117 124.103 191.925 125.651 C 191.912 125.762 191.896 125.874 191.878 125.988 C 191.959 126.464 191.999 126.968 191.999 127.5 L 191.999 206.25 C 191.999 211.25 188.443 211.25 181.332 206.25 L 69.599 127.687 C 69.6 127.657 69.602 127.628 69.603 127.598 C 68.515 126.91 67.586 126.039 66.781 125.05 C 65.845 123.896 64.989 122.495 64.533 121 C 64.061 119.435 63.877 117.462 64.085 115.827 C 64.086 115.819 64.087 115.81 64.088 115.802 C 64.029 115.388 64 114.955 64 114.5 Z" style=""/>
</svg>