<?xml version="1.0" encoding="utf-8"?>
<svg viewBox="0 0 500 500" xmlns="http://www.w3.org/2000/svg" xmlns:bx="https://boxy-svg.com">
  <path d="M 206.797 90.707 Q 224.656 56.068 224.656 90.707 L 224.656 367.819 Q 224.656 402.458 206.797 402.458 L 63.923 402.458 Q 46.064 402.458 63.923 367.819 Z" style="fill: rgb(255, 250, 242); stroke: rgb(190, 183, 173);" transform="matrix(0.9999999999999999, 0, 0, 0.9999999999999999, 0, -7.105427357601002e-15)" bx:shape="triangle 46.064 56.068 178.592 346.39 1 0.1 1@3c2deacc"/>
  <path d="M 263.826 81.49 Q 263.826 64.516 281.03 81.49 L 418.665 217.281 Q 435.869 234.255 418.665 234.255 L 281.03 234.255 Q 263.826 234.255 263.826 217.281 Z" style="fill: rgb(255, 250, 242); stroke: rgb(190, 183, 173);" transform="matrix(0.9999999999999999, 0, 0, 0.9999999999999999, 0, -7.105427357601002e-15)" bx:shape="triangle 263.826 64.516 172.043 169.739 0 0.1 1@a25b396c"/>
  <path d="M 265.822 261.315 Q 265.822 245.635 283.026 261.315 L 420.661 386.758 Q 437.865 402.438 420.661 402.438 L 283.026 402.438 Q 265.822 402.438 265.822 386.758 Z" style="fill: rgb(255, 250, 242); stroke: rgb(190, 183, 173);" transform="matrix(0.9999999999999999, 0, 0, 0.9999999999999999, 0, -7.105427357601002e-15)" bx:shape="triangle 265.822 245.635 172.043 156.803 0 0.1 1@03841350"/>
  <line style="stroke: rgb(129, 116, 96);" x1="243.856" y1="72.197" x2="243.856" y2="400.922" transform="matrix(0.9999999999999999, 0, 0, 0.9999999999999999, 0, -7.105427357601002e-15)"/>
  <line style="fill: rgb(216, 216, 216); stroke: rgb(129, 116, 96);" x1="53.38" y1="420.891" x2="432.028" y2="420.123" transform="matrix(0.9999999999999999, 0, 0, 0.9999999999999999, 0, -7.105427357601002e-15)"/>
</svg>