<?xml version="1.0" encoding="utf-8"?>
<svg viewBox="0 0 256 256" xmlns="http://www.w3.org/2000/svg">
  <defs/>
  <path d="M 116 116 L 104 116 L 104 94.329 L 12 44.495 L 12 104 L 42 104 L 42 116 L 0 116 L 0 0 L 12 0 L 12 0.671 L 104 50.505 L 104 12 L 74 12 L 74 0 L 116 0 L 116 116 Z M 214 244 L 244 244 L 244 205.495 L 152 255.329 L 152 256 L 140 256 L 140 140 L 152 140 L 152 211.505 L 244 161.671 L 244 140 L 256 140 L 256 256 L 214 256 L 214 244 Z M 152 0 L 152 50.505 L 244 0.671 L 244 0 L 256 0 L 256 116 L 244 116 L 244 44.495 L 152 94.329 L 152 116 L 140 116 L 140 0 L 152 0 Z M 104 256 L 104 234.329 L 12 184.495 L 12 244 L 42 244 L 42 256 L 0 256 L 0 140 L 12 140 L 12 140.671 L 104 190.505 L 104 140 L 116 140 L 116 256 L 104 256 Z" style=""/>
</svg>