<?xml version="1.0" encoding="utf-8"?>
<svg viewBox="0 0 256 256" xmlns="http://www.w3.org/2000/svg">
  <defs/>
  <path d="M 8 0 H 24 A 8 8 0 0 1 32 8 V 248 A 8 8 0 0 1 24 256 H 8 A 8 8 0 0 1 0 248 V 8 A 8 8 0 0 1 8 0 Z" style=""/>
  <path d="M 158 0 L 248 0 C 252.418 0 256 3.582 256 8 L 256 248 C 256 252.418 252.418 256 248 256 L 232 256 C 227.582 256 224 252.418 224 248 L 224 38 C 224 34.686 221.314 32 218 32 L 158 32 C 153.582 32 150 28.418 150 24 L 150 8 C 150 3.582 153.582 0 158 0 Z" style=""/>
  <path d="M 64 41.041 C 64 36.986 67.556 36.986 74.667 41.041 L 185.989 104.531 C 185.988 104.543 185.986 104.555 185.985 104.567 C 187.135 105.276 188.161 106.196 188.995 107.149 C 190.143 108.462 191.033 110.177 191.527 111.753 C 191.987 113.219 192.173 114.709 192 116.254 L 192 178.959 C 192 183.014 188.444 183.014 181.333 178.959 L 70.583 115.795 C 70.447 115.725 70.315 115.654 70.186 115.581 C 68.875 114.842 67.779 113.851 66.847 112.703 C 65.888 111.522 65.009 110.09 64.545 108.56 C 64.209 107.454 64.019 106.15 64.001 104.897 L 64 104.896 Z" style=""/>
</svg>