<?xml version="1.0" encoding="utf-8"?>
<svg viewBox="0 0 256 256" xmlns="http://www.w3.org/2000/svg">
  <defs/>
  <path d="M 41.931 19.6 L 210.821 111.283 C 212.327 111.123 213.5 109.849 213.5 108.3 L 213.5 45.5 C 213.5 43.843 212.157 42.5 210.5 42.5 L 164.5 42.5 C 162.843 42.5 161.5 41.157 161.5 39.5 L 161.5 21.5 C 161.5 19.843 162.843 18.5 164.5 18.5 L 234.5 18.5 C 236.157 18.5 237.5 19.843 237.5 21.5 L 237.5 234.5 C 237.5 236.157 236.157 237.5 234.5 237.5 L 216.5 237.5 C 214.843 237.5 213.5 236.157 213.5 234.5 L 213.5 187.3 C 213.5 186.346 213.055 185.496 212.361 184.947 L 45.384 94.302 C 43.781 94.363 42.5 95.682 42.5 97.3 L 42.5 234.5 C 42.5 236.157 41.157 237.5 39.5 237.5 L 21.5 237.5 C 19.843 237.5 18.5 236.157 18.5 234.5 L 18.5 21.5 C 18.5 19.843 19.843 18.5 21.5 18.5 L 39.5 18.5 C 40.473 18.5 41.338 18.963 41.887 19.682 L 41.931 19.6 Z" style=""/>
</svg>