<?xml version="1.0" encoding="utf-8"?>
<svg viewBox="0 0 256 256" xmlns="http://www.w3.org/2000/svg">
  <defs/>
  <path d="M 41.931 236.4 L 42.5 236.091 L 42.5 21.5 C 42.5 19.843 41.157 18.5 39.5 18.5 L 21.5 18.5 C 19.843 18.5 18.5 19.843 18.5 21.5 L 18.5 234.5 C 18.5 236.157 19.843 237.5 21.5 237.5 L 39.5 237.5 C 40.473 237.5 41.338 237.037 41.887 236.318 L 41.931 236.4 Z M 213.5 210.5 C 213.5 212.157 212.157 213.5 210.5 213.5 L 164.5 213.5 C 162.843 213.5 161.5 214.843 161.5 216.5 L 161.5 234.5 C 161.5 236.157 162.843 237.5 164.5 237.5 L 234.5 237.5 C 236.157 237.5 237.5 236.157 237.5 234.5 L 237.5 21.5 C 237.5 19.843 236.157 18.5 234.5 18.5 L 216.5 18.5 C 214.843 18.5 213.5 19.843 213.5 21.5 L 213.5 210.5 Z M 60.5 226.32 L 195.5 153.034 L 195.5 80.206 L 60.5 153.492 L 60.5 226.32 Z" style="transform-box: fill-box; transform-origin: 50% 50%;" transform="matrix(-1, 0, 0, -1, 0.000025, -0.000023)"/>
</svg>